<?xml version="1.0" standalone="no"?>
<!DOCTYPE svg PUBLIC "-//W3C//DTD SVG 20010904//EN"
 "http://www.w3.org/TR/2001/REC-SVG-20010904/DTD/svg10.dtd">
<svg version="1.0" xmlns="http://www.w3.org/2000/svg"
 width="2140.000000pt" height="1612.000000pt" viewBox="0 0 2140.000000 1612.000000"
 preserveAspectRatio="xMidYMid meet">

<g transform="translate(0.000000,1612.000000) scale(0.100000,-0.100000)"
fill="#000000" stroke="none">
<path d="M0 8060 l0 -8060 1494 0 1493 0 6 45 c12 110 109 240 222 298 58 30
66 31 235 38 96 4 208 8 248 8 l72 1 1 2688 c1 1478 3 2678 6 2667 2 -11 24
-81 48 -155 89 -276 125 -550 155 -1169 6 -116 10 -923 10 -1880 l0 -1676 -30
-140 c-26 -122 -44 -193 -93 -357 -10 -34 -9 -38 14 -57 48 -40 144 -79 218
-90 77 -10 107 -25 75 -35 -36 -10 -340 -46 -484 -56 -225 -16 -353 -30 -367
-41 -6 -6 -17 -26 -23 -44 -11 -33 -13 -34 -73 -38 -34 -2 4041 -4 9056 -5
l9117 -2 0 8060 0 8060 -10700 0 -10700 0 0 -8060z m15834 7554 c21 -8 20 -27
-5 -76 -27 -54 -58 -192 -118 -543 -28 -159 -56 -313 -62 -341 -14 -62 -7 -97
27 -131 23 -23 31 -25 75 -20 87 11 118 40 134 127 4 19 49 163 100 320 52
157 103 321 115 365 40 149 94 240 145 245 40 4 65 0 65 -11 0 -6 -16 -46 -36
-88 -74 -158 -249 -695 -242 -742 l3 -20 22 20 21 20 6 -24 c8 -30 -2 -80 -24
-125 -26 -53 -32 -108 -13 -119 31 -17 49 -1 67 57 34 109 74 147 147 140 42
-4 47 -22 24 -91 -27 -83 -185 -461 -257 -615 l-20 -43 -23 21 c-13 12 -29 35
-35 51 -7 16 -19 29 -27 29 -22 0 -132 78 -199 141 -60 57 -72 63 -196 92 -55
13 -57 13 -66 -9 -6 -12 -25 -38 -43 -58 l-32 -37 -73 6 c-70 7 -73 6 -89 -19
-22 -33 -33 -33 -111 4 -127 61 -160 172 -76 253 45 43 104 53 236 38 98 -10
119 -10 149 3 70 29 84 76 188 630 46 246 89 450 101 478 29 68 70 92 122 72z
m759 -1137 c18 -47 -184 -517 -223 -517 -4 0 -13 -22 -20 -50 -12 -52 -34 -66
-45 -30 -7 22 7 54 21 48 12 -4 33 58 34 102 1 52 37 189 64 240 13 25 32 79
42 120 10 41 22 81 27 88 12 16 93 16 100 -1z m-193 -184 c-13 -37 -38 -104
-57 -148 -18 -44 -33 -84 -33 -90 0 -7 -11 -22 -25 -35 -17 -16 -25 -34 -25
-57 0 -48 -33 -59 -127 -43 -2 0 13 28 31 63 19 34 58 123 87 197 28 74 56
141 62 148 5 6 22 12 36 12 15 0 36 6 47 14 10 8 21 13 23 11 1 -2 -7 -34 -19
-72z m-5460 6 l50 -11 -25 -20 c-14 -11 -60 -90 -105 -179 -74 -149 -94 -209
-71 -223 5 -4 74 -11 153 -17 133 -9 170 -14 273 -36 39 -8 38 -8 -30 -13
l-70 -5 3 -30 c7 -75 -2 -69 123 -76 70 -3 -14 -6 -216 -7 -586 -4 -1026 -32
-1456 -92 -214 -29 -586 -108 -637 -134 -15 -7 -85 -32 -156 -55 -186 -60
-345 -144 -424 -224 -59 -60 -64 -68 -74 -129 -11 -64 -11 -66 20 -117 18 -28
28 -51 23 -51 -12 0 -35 30 -69 89 l-30 53 15 57 c47 175 406 353 935 461 222
45 577 94 788 110 253 18 243 15 274 61 15 23 26 55 26 74 0 82 66 235 139
323 125 150 355 231 541 191z m4512 -247 c10 -8 35 -42 57 -76 40 -61 75 -88
234 -178 31 -18 78 -36 88 -34 3 1 13 -7 23 -16 10 -10 23 -18 30 -18 8 0 19
-7 26 -15 7 -8 23 -15 36 -15 13 0 23 -4 22 -8 -2 -4 12 -21 30 -37 46 -41 37
-69 -45 -149 -57 -56 -63 -65 -54 -88 11 -30 36 -46 119 -78 34 -14 62 -28 62
-32 0 -5 95 93 108 112 5 7 83 -37 113 -63 59 -52 71 -107 23 -107 -28 0 -40
-16 -24 -35 17 -20 -23 -42 -111 -61 -55 -12 -115 -15 -231 -12 -130 3 -158 1
-158 -10 0 -8 -16 -30 -34 -48 -42 -42 -40 -35 -66 -214 -11 -80 -25 -168 -30
-196 l-11 -50 -89 -39 c-83 -35 -89 -40 -75 -55 35 -39 29 -67 -63 -330 -117
-332 -199 -541 -330 -837 l-107 -241 -35 -6 c-19 -3 -189 -6 -377 -6 l-342 0
40 73 c69 124 262 515 327 663 91 209 201 494 272 705 l62 187 -21 28 -21 29
31 170 c80 454 100 550 121 572 27 29 98 53 178 59 118 10 107 -7 102 153 -3
77 -1 182 3 235 l7 95 46 -6 c26 -3 55 -12 64 -21z m-9614 -120 c7 -5 11 -23
10 -43 -3 -31 -1 -34 23 -31 20 2 28 -2 33 -20 3 -13 6 -202 6 -421 0 -443 0
-440 -66 -472 -41 -19 -91 -16 -131 10 -50 33 -53 56 -52 437 0 194 3 384 8
422 6 60 11 72 39 97 25 22 42 29 75 29 23 0 48 -4 55 -8z m756 -245 c17 -13
16 -17 -16 -88 -19 -41 -105 -225 -191 -409 -87 -184 -157 -340 -157 -346 0
-7 -7 -18 -16 -25 -14 -12 -14 -14 3 -20 17 -7 17 -8 0 -8 -30 -1 -76 28 -92
59 -31 60 -33 55 210 564 97 203 125 252 150 267 35 22 84 24 109 6z m-1577
-34 c7 -10 17 -23 22 -29 5 -7 7 -15 4 -18 -4 -3 -1 -6 6 -6 7 0 9 -4 6 -10
-3 -5 0 -10 7 -10 7 0 28 -28 46 -63 279 -528 302 -575 302 -622 0 -40 -5 -52
-34 -81 -28 -28 -41 -34 -79 -34 -85 0 -91 9 -288 396 -109 214 -179 363 -179
380 0 41 35 93 73 110 39 17 98 11 114 -13z m6426 20 c-13 -2 -35 -2 -50 0
-16 2 -5 4 22 4 28 0 40 -2 28 -4z m-4800 -178 c-3 -9 -8 -14 -10 -11 -3 3 -2
9 2 15 9 16 15 13 8 -4z m-42 -92 c-11 -21 -20 -35 -21 -31 0 12 33 78 38 74
2 -2 -6 -21 -17 -43z m-45 -100 c-14 -26 -25 -45 -26 -41 0 12 43 98 48 94 2
-2 -8 -26 -22 -53z m-55 -120 c-11 -21 -20 -35 -21 -31 0 12 33 78 38 74 2 -2
-6 -21 -17 -43z m-60 -130 c-11 -21 -20 -35 -21 -31 0 12 33 78 38 74 2 -2 -6
-21 -17 -43z m-75 -161 c-20 -39 -46 -78 -58 -86 -25 -18 -73 -22 -63 -6 3 6
16 10 29 10 32 0 57 27 90 98 16 34 31 60 33 58 3 -2 -12 -36 -31 -74z m2241
-153 c24 -10 54 -19 66 -19 26 0 201 -40 563 -129 116 -29 220 -48 237 -43 11
3 -9 -32 -27 -47 -19 -16 -279 32 -505 95 -153 42 -451 158 -451 175 0 9 58
-7 117 -32z m613 -594 c-6 -26 -40 -97 -77 -159 -58 -98 -103 -166 -103 -155
1 27 40 116 93 209 101 182 105 187 87 105z m985 -625 c228 -22 233 -23 380
-52 171 -33 268 -60 305 -83 48 -31 86 -75 94 -108 13 -55 -34 -167 -136 -327
-36 -56 -33 -74 12 -74 l34 -1 -1 -140 c-1 -121 -4 -147 -23 -188 -12 -27 -18
-56 -15 -67 9 -28 49 -35 96 -17 43 17 50 10 19 -18 -11 -10 -20 -22 -20 -26
0 -15 43 -59 57 -59 7 0 13 -4 13 -8 0 -12 59 -44 70 -37 5 3 26 2 45 -4 57
-16 144 -92 197 -175 l32 -49 -49 -45 c-214 -192 -454 -243 -677 -144 -68 30
-165 98 -226 159 -29 29 -58 53 -63 53 -44 0 68 -111 188 -186 180 -114 380
-134 566 -58 70 28 206 117 262 172 31 30 45 37 60 31 11 -4 30 -8 43 -8 13
-1 49 -13 80 -27 60 -28 105 -35 212 -37 59 0 72 4 144 44 81 45 146 112 146
151 0 10 9 39 20 63 33 72 16 169 -46 266 -69 107 -73 120 -64 191 4 36 13 74
19 86 8 15 8 22 -2 25 -7 3 -1 9 13 15 14 5 34 19 44 31 16 17 10 16 -35 -9
-140 -79 -238 -110 -344 -109 -49 0 -203 23 -211 32 -3 3 8 24 25 49 49 73 73
145 78 238 5 72 2 96 -19 157 -13 40 -19 68 -13 63 9 -8 10 2 2 40 -9 46 -8
52 12 69 32 28 138 35 235 16 105 -20 190 -61 252 -121 58 -57 83 -101 92
-163 11 -69 27 -60 40 23 14 81 19 91 38 75 10 -8 21 -4 43 18 21 22 34 27 49
22 54 -20 110 21 113 84 1 20 2 20 12 -5 9 -22 15 -26 41 -23 52 7 56 -2 62
-126 15 -293 -78 -642 -244 -911 -148 -240 -360 -450 -595 -588 -108 -63 -167
-87 -176 -71 -5 7 -37 17 -72 22 -35 6 -86 15 -114 19 -59 11 -604 4 -690 -9
-33 -4 -51 -9 -40 -10 194 -15 362 -24 600 -29 l290 -7 46 -32 c64 -44 117
-106 147 -172 21 -46 26 -71 26 -141 1 -75 -3 -93 -30 -150 -17 -36 -50 -84
-74 -107 -28 -29 -38 -44 -29 -47 8 -3 65 -18 127 -35 145 -40 276 -89 424
-158 l117 -56 83 69 c367 305 765 703 1092 1094 213 254 463 601 656 910 53
84 54 86 63 195 5 61 13 114 17 118 4 4 16 0 27 -10 l21 -18 -99 -1035 c-54
-569 -99 -1038 -99 -1042 0 -5 -7 -8 -16 -8 -14 0 -16 -9 -10 -72 4 -40 10
-89 13 -109 l5 -36 -206 -126 c-179 -110 -262 -150 -242 -118 3 5 -1 30 -9 57
-8 26 -12 51 -9 55 2 4 -3 15 -12 24 -9 9 -15 17 -13 19 5 4 175 114 320 206
l116 74 23 248 c12 137 20 251 18 254 -3 2 -32 -29 -64 -69 -129 -162 -400
-463 -606 -674 -270 -275 -494 -493 -507 -493 -9 0 -76 -42 -90 -56 -3 -2 8
-18 24 -34 24 -25 29 -39 30 -82 0 -50 -2 -53 -41 -80 -45 -30 -67 -68 -90
-156 -28 -106 -33 -111 -199 -189 -54 -25 -63 -34 -87 -84 l-28 -57 -392 -7
c-216 -3 -842 -5 -1391 -3 l-997 3 -25 30 c-14 17 -54 74 -90 127 -49 75 -69
96 -81 91 -15 -6 -15 -8 2 -20 25 -18 25 -95 -1 -123 -10 -11 -14 -20 -9 -20
5 0 0 -7 -10 -15 -11 -8 -14 -15 -7 -15 7 0 9 -5 6 -10 -4 -6 -2 -17 4 -24 14
-16 -183 -26 -524 -26 -128 0 -287 -3 -353 -7 l-122 -6 0 -109 0 -108 -116 0
-115 0 75 147 c42 80 75 147 74 149 -2 1 -56 14 -121 29 -314 70 -519 148
-650 248 -123 94 -193 196 -240 357 -43 146 -46 134 26 125 69 -7 77 -10 77
-31 0 -27 43 -139 76 -199 18 -33 58 -85 89 -117 37 -38 53 -62 49 -72 -5 -12
6 -21 39 -36 25 -11 59 -23 75 -26 23 -5 33 -15 45 -44 36 -93 163 -99 204 -9
23 50 55 55 46 7 -3 -18 -6 -35 -5 -38 1 -53 6 -66 36 -96 40 -40 82 -45 136
-16 52 29 74 79 72 172 l-2 77 38 27 37 26 7 -22 c3 -13 4 -64 1 -113 -5 -72
-2 -97 11 -122 48 -94 144 -81 194 25 24 51 27 68 26 167 0 75 -8 145 -24 218
-26 121 -23 129 37 140 29 6 36 2 76 -46 24 -29 72 -104 105 -167 74 -140 116
-185 172 -185 30 0 47 7 66 27 36 35 38 86 8 166 l-23 63 27 -19 c48 -35 122
-103 122 -113 0 -6 -24 -40 -53 -77 -29 -37 -73 -98 -97 -137 -24 -38 -49 -76
-56 -83 -8 -7 -19 -21 -26 -31 -7 -10 -32 -30 -55 -46 -24 -15 -43 -29 -43
-32 0 -2 67 31 150 72 96 50 151 83 155 96 4 11 22 40 42 65 19 26 37 62 40
80 6 38 5 38 48 23 26 -10 38 -8 80 14 46 23 51 29 62 77 11 46 10 56 -6 88
-26 49 -94 114 -216 203 -117 87 -235 150 -348 188 l-82 28 -3 67 -3 68 28 -6
c28 -5 240 -35 401 -56 l82 -11 98 59 c189 115 460 241 651 302 l113 37 -51
37 c-63 47 -108 111 -133 188 -23 76 -23 140 1 217 32 103 95 173 206 229 l40
20 -40 17 c-58 25 -212 123 -293 188 -162 130 -319 313 -423 496 -29 51 -57
94 -63 96 -6 1 -33 8 -61 14 -129 30 -267 134 -332 251 -115 207 -78 467 89
631 33 33 82 71 108 84 48 24 60 40 60 78 1 63 28 67 500 62 269 -3 420 -10
575 -25z m-2745 -292 c0 -134 -5 -295 -11 -358 -10 -109 -44 -338 -51 -345 -2
-2 -149 -7 -327 -11 l-324 -7 6 32 c42 210 69 559 60 771 -3 70 -3 135 0 144
6 14 42 16 327 16 l320 0 0 -242z m4020 158 c0 -2 -7 -7 -16 -10 -8 -3 -12 -2
-9 4 6 10 25 14 25 6z m-5710 -1296 c-106 -111 -197 -203 -202 -206 -5 -3 -8
-541 -8 -1242 0 -680 0 -1243 0 -1249 0 -9 -22 -13 -75 -13 l-75 0 0 -65 0
-65 -695 0 -695 0 0 65 0 65 258 2 257 3 -4 1248 -4 1249 204 204 204 204 514
0 513 0 -192 -200z m8636 -1677 c7 -43 36 -271 64 -508 55 -460 60 -569 27
-618 l-17 -27 -375 0 -375 0 0 35 0 35 353 0 c263 0 358 3 377 13 21 10 25 21
28 62 3 50 -83 809 -93 826 -4 5 -8 28 -11 51 -18 167 -22 214 -17 221 11 19
26 -15 39 -90z m-6861 -133 c-1 -11 -4 -23 -8 -26 -4 -4 -7 -21 -8 -38 0 -17
-6 -49 -13 -71 l-13 -40 -13 30 c-15 35 -25 127 -17 150 4 9 19 15 40 15 27 0
33 -4 32 -20z m9483 -1057 c34 -110 222 -811 222 -827 0 -10 -19 -18 -57 -27
-32 -6 -195 -49 -362 -95 -168 -46 -308 -81 -312 -77 -4 5 -32 105 -63 223
-31 118 -61 223 -66 232 -6 10 -33 105 -60 210 -28 106 -53 202 -56 213 -5 19
18 26 293 102 285 77 405 109 429 112 6 0 21 -29 32 -66z m-14968 -273 l0
-290 -125 0 -125 0 0 290 0 290 125 0 125 0 0 -290z m7844 -297 c4 -5 -79 -16
-186 -25 -221 -19 -456 -47 -478 -55 -8 -4 -19 -5 -24 -4 -13 3 -290 -42 -296
-49 -3 -3 -16 -6 -30 -6 -57 -3 -220 -36 -220 -44 0 -4 -11 -5 -24 -3 -13 3
-27 0 -30 -6 -4 -5 -13 -8 -21 -4 -8 3 -15 1 -15 -3 0 -5 -14 -10 -31 -10 -17
-1 -34 -5 -38 -10 -3 -5 -10 -9 -16 -9 -26 0 -124 -29 -120 -36 3 -4 -5 -5
-17 -1 -16 4 -19 2 -13 -8 6 -10 4 -12 -10 -6 -21 8 -88 -12 -80 -24 3 -4 -2
-11 -11 -14 -10 -4 -13 -2 -8 6 5 8 2 9 -10 5 -10 -4 -22 -7 -27 -7 -5 0 -9
-6 -9 -13 0 -7 -26 -25 -57 -41 -112 -54 -178 -100 -221 -152 -71 -86 -68
-157 9 -254 32 -41 43 -49 57 -41 12 6 34 4 68 -8 110 -37 214 -128 235 -207
10 -33 7 -44 -21 -98 -64 -126 -314 -509 -727 -1117 l-106 -156 -121 42 c-142
50 -246 70 -293 56 -18 -5 -33 -7 -33 -5 0 3 130 196 290 430 159 233 342 508
406 612 64 103 152 237 195 299 44 62 79 115 79 118 0 4 -24 29 -54 56 -65 60
-86 101 -86 171 0 61 32 350 57 516 l16 112 1007 0 c554 0 1010 -3 1014 -7z
m-244 -1715 c0 -5 -3 -7 -7 -5 -5 3 -8 -17 -8 -43 0 -27 4 -46 9 -42 6 3 6 -3
1 -14 -4 -10 -8 -40 -8 -66 -1 -26 -4 -45 -9 -42 -9 5 -13 -14 -27 -108 -5
-37 -7 -76 -4 -87 3 -12 0 -27 -6 -34 -6 -8 -9 -23 -6 -36 2 -12 0 -19 -6 -16
-5 4 -9 0 -10 -7 -3 -46 -8 -61 -22 -70 -10 -5 -17 -16 -17 -23 0 -25 -16 -17
-53 25 -98 108 -124 279 -62 406 29 60 95 128 155 161 38 20 80 21 80 1z m17
-90 c-3 -8 -6 -5 -6 6 -1 11 2 17 5 13 3 -3 4 -12 1 -19z m6360 -867 c-18 -16
-53 -37 -78 -47 -24 -10 -47 -22 -51 -28 -4 -6 -8 -7 -8 -3 0 5 -13 -1 -29
-12 -28 -21 -202 -81 -231 -81 -8 0 32 21 90 45 58 25 155 69 215 99 61 30
114 55 118 55 4 1 -7 -12 -26 -28z m-8185 -22 c30 -29 31 -33 25 -94 -8 -81
-20 -109 -87 -195 l-55 -70 -57 61 c-32 34 -58 66 -58 71 0 9 76 125 137 211
19 26 41 47 50 47 8 0 28 -14 45 -31z m-1579 -68 c67 -26 160 -61 207 -76 l84
-28 146 22 c80 12 238 38 351 57 194 33 214 35 322 26 74 -5 122 -14 133 -23
21 -17 74 -127 74 -152 0 -34 -31 -131 -67 -208 l-35 -76 -41 11 c-57 15 -62
19 -87 71 -66 136 -231 190 -442 144 -72 -16 -178 -17 -231 -2 -26 8 -53 11
-59 7 -7 -4 -8 -3 -4 4 5 8 -2 10 -21 6 -44 -9 -306 123 -383 192 -34 30 -65
54 -70 54 -5 0 -16 -10 -24 -21 -14 -21 -12 -25 28 -66 23 -25 107 -84 186
-132 79 -49 146 -93 147 -98 2 -6 -7 -23 -20 -38 l-23 -27 -134 70 c-74 39
-161 91 -193 117 -32 25 -63 43 -68 39 -23 -14 101 -117 226 -188 69 -40 185
-118 185 -124 0 -3 -3 -3 -6 1 -11 10 -36 -22 -39 -50 -4 -40 13 -68 54 -90
26 -13 37 -27 39 -46 2 -19 9 -27 23 -27 10 0 19 -4 19 -9 0 -5 11 -12 25 -15
15 -4 27 -16 31 -32 4 -16 11 -23 21 -20 18 7 81 -33 89 -57 4 -14 12 -17 35
-12 17 4 29 2 29 -3 0 -6 14 -15 31 -21 17 -6 91 -43 163 -82 72 -39 177 -91
233 -115 112 -47 167 -79 198 -114 33 -36 247 -137 375 -176 51 -15 120 -16
120 -1 0 5 7 6 16 3 10 -4 22 1 30 11 17 23 18 3 1 -21 -12 -16 -24 -17 -103
-13 -215 13 -276 24 -393 67 -186 69 -348 145 -396 188 -25 21 -109 72 -188
112 -115 58 -151 72 -187 72 -51 -1 -71 8 -117 54 -24 25 -43 34 -66 34 -37 0
-51 9 -122 74 -30 28 -59 46 -74 46 -16 0 -43 20 -85 64 -33 36 -70 66 -81 68
-11 2 -33 24 -50 48 -16 25 -50 70 -74 100 -55 68 -91 144 -91 191 0 61 117
223 180 248 39 15 44 14 173 -38z m4631 -258 c65 -204 82 -649 57 -1523 -8
-267 -12 -542 -9 -611 l5 -126 49 -73 c52 -78 69 -92 77 -63 3 10 5 -78 6
-194 l1 -213 38 -1 c26 -1 18 -4 -26 -9 -34 -4 -65 -10 -69 -13 -3 -4 -11
-114 -18 -246 -7 -131 -15 -244 -19 -250 -4 -6 -20 -11 -36 -11 -16 0 -41 -5
-56 -10 l-27 -11 5 181 5 180 -36 1 c-140 2 -265 -2 -270 -8 -3 -5 -13 -8 -21
-8 -8 0 -21 -6 -29 -13 -7 -7 -20 -11 -27 -8 -8 3 -14 1 -14 -5 0 -6 -7 -9
-15 -5 -8 3 -15 1 -15 -4 0 -7 -33 -23 -50 -23 -3 0 -20 -6 -37 -14 -39 -16
-45 -2 -7 16 15 6 24 14 22 17 -8 7 -58 -18 -58 -28 0 -5 -4 -6 -10 -3 -5 3
-10 1 -10 -6 0 -7 -3 -10 -6 -6 -8 7 -104 -46 -159 -87 -22 -17 -77 -66 -122
-110 l-82 -79 -48 7 c-26 3 -51 10 -56 15 -13 13 173 202 273 277 96 73 285
170 408 210 45 14 82 30 82 35 0 5 17 9 38 9 20 0 67 3 105 7 l67 6 0 1469 0
1469 39 -45 c21 -25 46 -67 55 -93z m-8906 2 c59 -14 162 -59 162 -71 0 -3
-13 -10 -30 -15 -16 -6 -30 -17 -30 -25 0 -8 -11 -25 -24 -37 -13 -12 -27 -33
-31 -47 -4 -14 -14 -32 -21 -41 -37 -42 -141 -266 -159 -344 -27 -113 -21
-285 13 -375 25 -69 108 -207 155 -257 19 -21 19 -26 7 -78 -7 -30 -17 -55
-21 -55 -5 0 -15 -15 -23 -34 -14 -34 -94 -170 -195 -334 -28 -46 -51 -86 -51
-89 0 -3 -9 -17 -19 -32 -32 -45 -81 -138 -81 -155 0 -8 -6 -19 -12 -23 -17
-10 -58 -93 -58 -115 0 -9 -4 -20 -10 -23 -5 -3 -10 -13 -10 -22 0 -9 -7 -24
-15 -33 -11 -12 -12 -24 -5 -50 5 -18 7 -37 4 -42 -3 -5 2 -18 12 -29 25 -28
0 -25 -55 8 -249 144 -391 391 -391 680 0 139 24 233 103 403 19 41 40 98 47
125 6 28 15 178 20 335 9 314 15 353 76 478 67 136 216 255 374 296 72 19 189
19 268 1z m5972 -169 c0 -2 -7 -7 -16 -10 -8 -3 -12 -2 -9 4 6 10 25 14 25 6z
m6103 -379 c13 12 18 -25 10 -72 l-8 -49 -16 67 c-12 48 -13 64 -4 57 6 -5 15
-7 18 -3z m1039 -24 c10 -9 18 -22 18 -28 0 -8 10 -11 28 -8 21 3 17 -1 -18
-19 -25 -13 -73 -45 -107 -73 -34 -27 -90 -72 -123 -98 -36 -29 -60 -56 -60
-68 0 -25 -61 -63 -255 -162 -113 -58 -160 -77 -190 -77 -22 0 -55 -9 -73 -20
-18 -11 -37 -18 -42 -15 -5 3 -16 29 -25 58 -10 28 -24 62 -32 75 -31 50 -7
72 222 199 139 77 393 203 409 203 11 0 -31 -37 -75 -67 -74 -50 -224 -133
-285 -158 -67 -27 -96 -63 -74 -90 12 -14 27 -16 80 -13 73 6 137 33 187 80
17 17 36 27 41 24 12 -7 74 26 120 66 18 16 37 26 42 23 12 -7 90 37 115 65
10 11 25 20 34 20 25 0 44 36 31 60 -21 40 -3 54 32 23z m-673 -33 c31 -4 59
-6 64 -3 4 2 7 1 6 -4 -1 -14 -105 -92 -187 -140 -88 -51 -130 -87 -144 -123
-10 -25 -10 -24 -33 20 -28 53 -30 80 -10 119 28 55 189 157 228 145 10 -3 44
-10 76 -14z m421 -81 c0 -5 -4 -9 -8 -9 -5 0 -9 7 -9 15 0 8 4 12 9 9 4 -3 8
-9 8 -15z m-35 -19 c-3 -5 -12 -10 -18 -10 -7 0 -6 4 3 10 19 12 23 12 15 0z
m-65 -35 c-7 -9 -15 -13 -18 -10 -8 8 -42 -26 -42 -42 0 -7 -10 -13 -22 -13
-13 0 -36 -9 -53 -20 -27 -18 -107 -37 -129 -31 -5 1 -4 -5 3 -13 10 -12 9
-14 -4 -12 -24 3 -21 20 6 33 78 40 149 71 149 65 0 -4 4 -1 9 6 4 7 14 14 22
16 8 1 28 9 44 19 38 21 51 21 35 2z m-250 -169 c0 -3 -4 -8 -10 -11 -5 -3
-10 -1 -10 4 0 6 5 11 10 11 6 0 10 -2 10 -4z m-6517 -21 c-3 -9 -8 -14 -10
-11 -3 3 -2 9 2 15 9 16 15 13 8 -4z m-23 -70 c0 -8 -4 -15 -10 -15 -5 0 -7 7
-4 15 4 8 8 15 10 15 2 0 4 -7 4 -15z m-6135 -1515 c8 -15 18 -53 21 -84 l7
-56 41 -1 c22 -1 52 -3 66 -4 14 -1 97 -4 185 -5 153 -3 157 -3 85 -12 -129
-16 -173 -33 -217 -81 -22 -24 -44 -50 -49 -59 -18 -31 -84 -66 -146 -76 -72
-13 -535 -25 -590 -16 -33 6 -39 12 -55 52 -10 26 -17 74 -17 116 l-1 71 318
3 317 2 0 96 c0 99 7 109 35 54z m745 -175 c0 -8 -2 -15 -4 -15 -2 0 -6 7 -10
15 -3 8 -1 15 4 15 6 0 10 -7 10 -15z m8847 -186 c48 -17 128 -51 176 -76 86
-45 220 -135 218 -147 -1 -4 25 -37 57 -75 67 -78 122 -154 122 -171 0 -6 -21
-20 -47 -31 -45 -19 -47 -19 -63 -2 -9 10 -50 56 -90 103 -110 126 -184 197
-290 278 -102 78 -189 152 -178 152 3 0 46 -14 95 -31z m-10062 -99 c19 -16
19 -38 -1 -113 -9 -34 -19 -106 -22 -162 l-7 -100 -32 165 c-18 91 -35 184
-39 207 l-7 43 47 -14 c26 -8 53 -20 61 -26z"/>
<path d="M15995 14490 c3 -5 8 -10 11 -10 2 0 4 5 4 10 0 6 -5 10 -11 10 -5 0
-7 -4 -4 -10z"/>
<path d="M15220 14380 c0 -5 5 -10 10 -10 6 0 10 -6 10 -14 0 -8 12 -17 28
-20 70 -14 102 -18 102 -12 0 10 -64 40 -87 41 -13 0 -28 6 -35 13 -15 15 -28
16 -28 2z"/>
<path d="M15165 13400 c10 -11 20 -20 23 -20 3 0 -3 9 -13 20 -10 11 -20 20
-23 20 -3 0 3 -9 13 -20z"/>
<path d="M16150 13270 c0 -5 -3 -15 -6 -23 -3 -10 4 -17 23 -21 15 -4 36 -9
45 -12 13 -4 16 -1 12 10 -4 11 0 13 18 10 13 -2 16 -1 8 2 -8 4 -18 11 -21
16 -8 12 -79 28 -79 18z"/>
<path d="M5307 12842 c1 -2 -10 -15 -25 -28 -27 -23 -27 -23 -4 -24 12 0 22 4
22 10 0 5 6 7 14 4 13 -5 31 24 21 34 -3 3 -5 -1 -5 -8 0 -11 -2 -11 -12 1 -7
8 -12 13 -11 11z"/>
<path d="M9880 11385 c-7 -9 -32 -20 -56 -26 -96 -25 -174 -133 -174 -243 1
-79 25 -133 89 -195 54 -53 151 -107 175 -98 9 4 27 25 42 49 86 135 84 332
-4 460 -43 62 -56 72 -72 53z"/>
<path d="M16704 7051 c-33 -21 -72 -55 -88 -75 -15 -20 -53 -54 -85 -75 -55
-38 -79 -66 -66 -79 3 -4 49 15 102 41 52 27 97 46 99 44 11 -11 -13 -40 -61
-71 -45 -30 -65 -52 -65 -72 0 -13 42 2 134 48 104 52 148 58 91 14 -78 -61
-81 -65 -64 -76 14 -8 15 -17 9 -47 -5 -21 -7 -39 -5 -42 4 -4 71 13 165 42
40 12 72 10 82 -6 8 -14 38 9 38 30 0 12 -11 13 -57 8 -62 -7 -62 -6 2 40 19
14 19 15 3 28 -16 13 -15 15 12 36 59 43 25 55 -55 20 -58 -26 -67 -19 -21 16
40 30 47 55 17 55 -11 0 -62 -18 -113 -40 l-93 -40 35 31 c19 16 68 52 108 80
40 28 71 56 69 62 -7 21 -64 8 -127 -29 -33 -19 -77 -42 -98 -50 l-37 -15 40
36 c22 20 59 50 83 66 42 30 50 51 21 56 -8 2 -41 -15 -75 -36z"/>
<path d="M16892 6665 c-13 -7 -29 -18 -35 -24 -18 -18 11 -31 40 -20 30 11 83
12 83 1 0 -4 -9 -15 -20 -25 -17 -14 -18 -20 -8 -42 9 -19 18 -25 42 -24 29 0
29 1 9 9 -28 11 -28 14 -2 56 26 43 18 56 -34 52 -35 -3 -42 0 -39 15 3 20 -4
20 -36 2z"/>
<path d="M8058 6274 c-27 -13 -48 -27 -48 -29 0 -5 99 42 109 51 13 11 -20 0
-61 -22z"/>
<path d="M14710 2785 c-7 -8 -8 -15 -2 -15 5 0 15 7 22 15 7 8 8 15 2 15 -5 0
-15 -7 -22 -15z"/>
</g>
</svg>
